<svg width="24" height="24" viewBox="0 0 24 24" fill="none" xmlns="http://www.w3.org/2000/svg">
<path d="M21.6 11.9999C21.5992 6.89322 17.6005 2.68094 12.5008 2.41452C7.40102 2.14811 2.98527 5.92083 2.45237 10.9997C1.91947 16.0785 5.45597 20.6856 10.5 21.4835L10.5 14.7749H8.06276V11.9999H10.5V9.88494C10.5 7.47894 11.9334 6.14994 14.1258 6.14994C14.8458 6.15993 15.5641 6.22249 16.275 6.33714V8.69994H15.0642C14.6462 8.64443 14.2257 8.78202 13.9214 9.07383C13.6171 9.36565 13.462 9.78003 13.5 10.1999V11.9999H16.1628L15.7368 14.7749H13.5L13.5 21.4835C18.1654 20.7455 21.6007 16.7234 21.6 11.9999Z" fill="#4C8AFF"/>
</svg>
