<svg width="20" height="16" viewBox="0 0 20 16" fill="none" xmlns="http://www.w3.org/2000/svg">
<path d="M19.6 2.05995C18.88 2.35995 18.16 2.59995 17.32 2.65995C18.16 2.17995 18.76 1.39995 19.06 0.499951C18.28 0.979951 17.44 1.27995 16.54 1.45995C15.82 0.679951 14.8 0.199951 13.72 0.199951C11.56 0.199951 9.75997 1.93995 9.75997 4.15995C9.75997 4.45995 9.81997 4.75995 9.87997 5.05995C6.57997 4.87995 3.69997 3.31995 1.71997 0.919951C1.35997 1.51995 1.17997 2.17995 1.17997 2.89995C1.17997 4.27995 1.89997 5.47995 2.91997 6.19995C2.25997 6.19995 1.65997 6.01995 1.11997 5.71995V5.77995C1.11997 7.69995 2.49997 9.25995 4.29997 9.61995C3.93997 9.67995 3.63997 9.73995 3.27997 9.73995C3.03997 9.73995 2.79997 9.73995 2.55997 9.67995C3.03997 11.24 4.53997 12.38 6.21997 12.44C4.89997 13.52 3.15997 14.12 1.29997 14.12C0.999966 14.12 0.639966 14.12 0.339966 14.06C2.13997 15.14 4.23997 15.8 6.45997 15.8C13.72 15.8 17.68 9.79995 17.68 4.57995C17.68 4.39995 17.68 4.21995 17.68 4.09995C18.4 3.49995 19.06 2.83995 19.6 2.05995Z" fill="#4CD2FF"/>
</svg>
