<svg width="64" height="64" viewBox="0 0 64 64" fill="none" xmlns="http://www.w3.org/2000/svg">
<g clip-path="url(#clip0_2_158)">
<path fill-rule="evenodd" clip-rule="evenodd" d="M42.6668 23.9999C42.6668 26.8289 41.543 29.542 39.5426 31.5424C37.5422 33.5428 34.8291 34.6666 32.0002 34.6666C29.1712 34.6666 26.4581 33.5428 24.4577 31.5424C22.4573 29.542 21.3335 26.8289 21.3335 23.9999C21.3335 21.1709 22.4573 18.4578 24.4577 16.4574C26.4581 14.4571 29.1712 13.3333 32.0002 13.3333C34.8291 13.3333 37.5422 14.4571 39.5426 16.4574C41.543 18.4578 42.6668 21.1709 42.6668 23.9999ZM37.3335 23.9999C37.3335 25.4144 36.7716 26.771 35.7714 27.7712C34.7712 28.7713 33.4147 29.3333 32.0002 29.3333C30.5857 29.3333 29.2291 28.7713 28.2289 27.7712C27.2287 26.771 26.6668 25.4144 26.6668 23.9999C26.6668 22.5854 27.2287 21.2289 28.2289 20.2287C29.2291 19.2285 30.5857 18.6666 32.0002 18.6666C33.4147 18.6666 34.7712 19.2285 35.7714 20.2287C36.7716 21.2289 37.3335 22.5854 37.3335 23.9999Z" fill="black"/>
<path fill-rule="evenodd" clip-rule="evenodd" d="M32.0001 2.66663C15.8001 2.66663 2.66675 15.8 2.66675 32C2.66675 48.2 15.8001 61.3333 32.0001 61.3333C48.2001 61.3333 61.3334 48.2 61.3334 32C61.3334 15.8 48.2001 2.66663 32.0001 2.66663ZM8.00008 32C8.00008 37.5733 9.90141 42.704 13.0881 46.7786C15.3266 43.8403 18.2138 41.459 21.5245 39.8206C24.8351 38.1821 28.4795 37.3309 32.1734 37.3333C35.8198 37.329 39.4189 38.1575 42.6964 39.7556C45.9739 41.3537 48.8432 43.6792 51.0854 46.5546C53.3959 43.5242 54.9516 39.9872 55.6238 36.2362C56.296 32.4852 56.0652 28.6281 54.9507 24.9839C53.8362 21.3398 51.87 18.0134 49.2147 15.2801C46.5594 12.5467 43.2914 10.4849 39.6811 9.26532C36.0708 8.04571 32.2219 7.70335 28.453 8.26655C24.6841 8.82976 21.1035 10.2823 18.0075 12.5041C14.9114 14.7259 12.3889 17.6529 10.6487 21.0431C8.90847 24.4333 8.00056 28.1892 8.00008 32ZM32.0001 56C26.4905 56.0089 21.1471 54.1135 16.8747 50.6346C18.5942 48.1723 20.8833 46.1618 23.5469 44.7745C26.2106 43.3872 29.1701 42.664 32.1734 42.6666C35.1392 42.664 38.0628 43.3692 40.7014 44.7235C43.3399 46.0777 45.6172 48.0421 47.3441 50.4533C43.0387 54.0453 37.6071 56.0087 32.0001 56Z" fill="black"/>
</g>
<defs>
<clipPath id="clip0_2_158">
<rect width="64" height="64" rx="32" fill="white"/>
</clipPath>
</defs>
</svg>
